<?xml version="1.0" encoding="UTF-8" standalone="no"?>
<!DOCTYPE svg PUBLIC "-//W3C//DTD SVG 1.1//EN" "http://www.w3.org/Graphics/SVG/1.1/DTD/svg11.dtd">
<svg version="1.1" xmlns="http://www.w3.org/2000/svg" xmlns:xlink="http://www.w3.org/1999/xlink" preserveAspectRatio="xMidYMid meet" viewBox="0 0 640 640" width="800" height="800"><defs><path d="M124.01 87.06C124.01 100.86 112.81 112.06 99.01 112.06C85.21 112.06 74.01 100.86 74.01 87.06C74.01 73.26 85.21 62.06 99.01 62.06C112.81 62.06 124.01 73.26 124.01 87.06Z" id="etmBiD7h"></path><path d="M385.61 461.31C385.61 477.86 372.17 491.31 355.61 491.31C339.06 491.31 325.61 477.86 325.61 461.31C325.61 444.75 339.06 431.31 355.61 431.31C372.17 431.31 385.61 444.75 385.61 461.31Z" id="b7zFn93hq"></path><path d="M179.2 506.31C179.2 547.7 145.59 581.31 104.2 581.31C62.8 581.31 29.2 547.7 29.2 506.31C29.2 464.91 62.8 431.31 104.2 431.31C145.59 431.31 179.2 464.91 179.2 506.31Z" id="cNqUhDbax"></path><path d="M560.24 531.31C560.24 545.1 549.03 556.31 535.24 556.31C521.44 556.31 510.24 545.1 510.24 531.31C510.24 517.51 521.44 506.31 535.24 506.31C549.03 506.31 560.24 517.51 560.24 531.31Z" id="aiexLzHXi"></path><path d="M570.24 135.46C570.24 157.53 552.31 175.46 530.24 175.46C508.16 175.46 490.24 157.53 490.24 135.46C490.24 113.38 508.16 95.46 530.24 95.46C552.31 95.46 570.24 113.38 570.24 135.46Z" id="b2YfpXHk4T"></path><path d="M389.58 245.27C389.58 272.86 367.17 295.27 339.58 295.27C311.98 295.27 289.58 272.86 289.58 245.27C289.58 217.67 311.98 195.27 339.58 195.27C367.17 195.27 389.58 217.67 389.58 245.27Z" id="angBTW1cc"></path><path d="M289.58 45.36C289.58 59.16 278.37 70.36 264.58 70.36C250.78 70.36 239.58 59.16 239.58 45.36C239.58 31.56 250.78 20.36 264.58 20.36C278.37 20.36 289.58 31.56 289.58 45.36Z" id="egmUHT3F0"></path><path d="M585.24 329.42C585.24 357.01 562.83 379.42 535.24 379.42C507.64 379.42 485.24 357.01 485.24 329.42C485.24 301.82 507.64 279.42 535.24 279.42C562.83 279.42 585.24 301.82 585.24 329.42Z" id="e4mWWTLCOf"></path></defs><g><g><g><use xlink:href="#etmBiD7h" opacity="1" fill="#c4bc00" fill-opacity="1"></use></g><g><use xlink:href="#b7zFn93hq" opacity="0.3" fill="#c4bc00" fill-opacity="1"></use></g><g><use xlink:href="#cNqUhDbax" opacity="0.3" fill="#c4bc00" fill-opacity="1"></use></g><g><use xlink:href="#aiexLzHXi" opacity="0.3" fill="#c45200" fill-opacity="1"></use></g><g><use xlink:href="#b2YfpXHk4T" opacity="0.3" fill="#c45200" fill-opacity="1"></use></g><g><use xlink:href="#angBTW1cc" opacity="0.3" fill="#ff3d3d" fill-opacity="1"></use></g><g><use xlink:href="#egmUHT3F0" opacity="0.3" fill="#ff3d3d" fill-opacity="0.3"></use></g><g><use xlink:href="#e4mWWTLCOf" opacity="0.3" fill="#c4bc00" fill-opacity="0.3"></use></g></g></g></svg>
