<?xml version="1.0" encoding="UTF-8"?>
<svg width="60px" height="60px" viewBox="0 0 2501 2374" version="1.1" xmlns="http://www.w3.org/2000/svg" xmlns:xlink="http://www.w3.org/1999/xlink">
    <!-- Generator: Sketch 51 (57462) - http://www.bohemiancoding.com/sketch -->
    <title>redux-icon</title>
    <desc>Created with Sketch.</desc>
    <defs></defs>
    <g id="Page-1" stroke="none" stroke-width="1" fill="none" fill-rule="evenodd">
        <g id="redux-icon" transform="translate(-1.000000, 0.000000)" fill="#ababab" fill-rule="nonzero">
            <path d="M1733.2,1657.6 C1825.5,1648 1895.4,1568.5 1892.3,1473.1 C1889.1,1377.7 1809.6,1301.3 1714.1,1301.3 L1707.7,1301.3 C1609.1,1304.5 1532.7,1387.2 1535.9,1485.8 C1539.1,1533.5 1558.2,1574.9 1586.8,1603.5 C1478.6,1816.7 1313.2,1972.6 1065.1,2103 C896.5,2192.1 721.5,2223.9 546.5,2201.6 C403.3,2182.5 292,2118.9 222,2013.9 C120.2,1858 110.7,1689.4 196.6,1520.8 C257,1399.9 352.5,1310.8 412.9,1266.3 C400.2,1224.9 381.1,1155 371.5,1104.1 C-89.7,1438.1 -42,1889.9 98,2103 C203,2262.1 416.1,2360.7 651.6,2360.7 C715.2,2360.7 778.8,2354.3 842.5,2338.4 C1249.7,2258.9 1558.3,2017.1 1733.2,1657.6 Z M2293.2,1263.1 C2051.4,979.9 1695.1,824.1 1287.9,824.1 L1237,824.1 C1208.4,766.8 1147.9,728.7 1081.1,728.7 L1074.7,728.7 C976.1,731.9 899.7,814.6 902.9,913.2 C906.1,1008.6 985.6,1085 1081.1,1085 L1087.5,1085 C1157.5,1081.8 1217.9,1037.3 1243.4,976.8 L1300.7,976.8 C1542.5,976.8 1771.5,1046.8 1978.3,1183.6 C2137.4,1288.6 2251.9,1425.4 2315.5,1590.8 C2369.6,1724.4 2366.4,1854.9 2309.1,1966.2 C2220,2134.8 2070.5,2227.1 1873.3,2227.1 C1746,2227.1 1625.2,2188.9 1561.5,2160.3 C1526.5,2192.1 1462.9,2243 1418.3,2274.8 C1555.1,2338.4 1695.1,2373.4 1828.7,2373.4 C2134.1,2373.4 2360,2204.8 2445.9,2036.2 C2538.1,1851.7 2531.8,1533.6 2293.2,1263.1 Z M677,1711.7 C680.2,1807.1 759.7,1883.5 855.2,1883.5 L861.6,1883.5 C960.2,1880.3 1036.6,1797.6 1033.4,1699 C1030.2,1603.6 950.7,1527.2 855.2,1527.2 L848.8,1527.2 C842.4,1527.2 832.9,1527.2 826.5,1530.4 C696.1,1314 642,1078.6 661.1,824.1 C673.8,633.2 737.4,467.8 848.8,331 C941.1,213.3 1119.2,156 1240.1,152.8 C1577.3,146.4 1720.5,566.4 1730,735 C1771.4,744.5 1841.3,766.8 1889.1,782.7 C1850.9,267.3 1532.8,0.1 1227.4,0.1 C941.1,0.1 677,206.9 572,512.3 C425.7,919.5 521.1,1310.8 699.3,1619.4 C683.4,1641.7 673.8,1676.7 677,1711.7 Z" id="Shape"></path>
        </g>
    </g>
</svg>
